<svg height="100" viewBox="0 0 132 100" width="132" xmlns="http://www.w3.org/2000/svg"><g fill="none" fill-rule="evenodd" transform="translate(1 13)"><path d="m62.853554 9.85301294c0 5.44127256-4.4112982 9.85306206-9.8530621 9.85306206-5.4412726 0-9.8525707-4.4117895-9.8525707-9.85306206 0-5.44127258 4.4112981-9.85306208 9.8525707-9.85306208 5.4417639 0 9.8530621 4.4117895 9.8530621 9.85306208" fill="#f06c45"/><g stroke="#000"><path d="m62.853554 9.85301294c0 5.44127256-4.4112982 9.85306206-9.8530621 9.85306206-5.4412726 0-9.8525707-4.4117895-9.8525707-9.85306206 0-5.44127258 4.4112981-9.85306208 9.8525707-9.85306208 5.4417639 0 9.8530621 4.4117895 9.8530621 9.85306208z" stroke-width=".9828"/><path d="m63.5690324.01980319h-20.970005v17.56362001h-20.9700051v17.56362h-20.96951361v17.5646028" stroke-linecap="square" stroke-width="1.001" transform="translate(0 20.316738)"/></g></g></svg>