<svg height="100" viewBox="0 0 132 100" width="132" xmlns="http://www.w3.org/2000/svg"><g fill="none" fill-rule="evenodd" transform="translate(1 15)"><path d="m16.9701 51.695868c0 4.68594-3.7989 8.48484-8.48484 8.48484-4.68636 0-8.48526-3.7989-8.48526-8.48484 0-4.68636 3.7989-8.48526 8.48526-8.48526 4.68594 0 8.48484 3.7989 8.48484 8.48526" fill="#f06c45"/><g stroke="#000"><path d="m16.9701 51.695868c0 4.68594-3.7989 8.48484-8.48484 8.48484-4.68636 0-8.48526-3.7989-8.48526-8.48484 0-4.68636 3.7989-8.48526 8.48526-8.48526 4.68594 0 8.48484 3.7989 8.48484 8.48526z"/><path d="m61.959324 52.301676c0 4.68594-3.7989 8.48484-8.48526 8.48484-4.68594 0-8.48484-3.7989-8.48484-8.48484 0-4.68636 3.7989-8.48526 8.48484-8.48526 4.68636 0 8.48526 3.7989 8.48526 8.48526z"/><path d="m44.989098 52.301676c0 4.68594-3.7989 8.48484-8.48526 8.48484-4.68594 0-8.48484-3.7989-8.48484-8.48484 0-4.68636 3.7989-8.48526 8.48484-8.48526 4.68636 0 8.48526 3.7989 8.48526 8.48526z"/><path d="m78.92913 52.301676c0 4.68594-3.7989 8.48484-8.48484 8.48484s-8.48484-3.7989-8.48484-8.48484c0-4.68636 3.7989-8.48526 8.48484-8.48526s8.48484 3.7989 8.48484 8.48526z"/><path d="m95.899314 52.301676c0 4.68594-3.7989 8.48484-8.48484 8.48484s-8.48526-3.7989-8.48526-8.48484c0-4.68636 3.79932-8.48526 8.48526-8.48526s8.48484 3.7989 8.48484 8.48526z"/><path d="m14.096964.41979h78.7542"/><path d="m36.503796.160146v43.65606"/><path d="m19.53357.160146-9.2694 43.23816"/><path d="m53.47398.160146v43.65606"/><path d="m70.444206.160146v43.65606"/><path d="m87.414432.160146v43.65606"/></g></g></svg>