<svg height="100" viewBox="0 0 132 100" width="132" xmlns="http://www.w3.org/2000/svg"><g fill="none" fill-rule="evenodd" transform="translate(1 13)"><g stroke="#000"><path d="m49.9528281 8.15919334c6.3888302 3.86253016 10.6589704 10.87506046 10.6589704 18.88551076 0 8.7664504-5.1105602 16.3340107-12.5162105 19.8972909"/><path d="m56.3899793.52227002c8.5213804 5.74497024 14.1239706 15.47973068 14.1239706 26.52237108 0 11.7936005-6.3888302 22.0985109-15.8974206 27.6318012"/><path d="m20.5605549 8.15919334c-6.3882003 3.86253016-10.65834049 10.87506046-10.65834049 18.88551076 0 8.7664504 5.11056019 16.3340107 12.51621049 19.8972909"/><path d="m14.1234036.52227002c-8.52075037 5.74497024-14.1233406 15.47973068-14.1233406 26.52237108 0 11.7936005 6.38883027 22.0985109 15.8967907 27.6318012"/></g><path d="m47.888696 28.3493712c0 6.9759903-5.6555102 12.6315005-12.6321305 12.6315005-6.9759903 0-12.6321306-5.6555102-12.6321306-12.6315005 0-6.9766203 5.6561403-12.6321305 12.6321306-12.6321305 6.9766203 0 12.6321305 5.6555102 12.6321305 12.6321305" fill="#f06c45"/><path d="m47.888696 28.3493712c0 6.9759903-5.6555102 12.6315005-12.6321305 12.6315005-6.9759903 0-12.6321306-5.6555102-12.6321306-12.6315005 0-6.9766203 5.6561403-12.6321305 12.6321306-12.6321305 6.9766203 0 12.6321305 5.6555102 12.6321305 12.6321305z" stroke="#000"/></g></svg>