<?xml version="1.0" encoding="UTF-8"?>
<svg width="216px" height="13px" viewBox="0 0 216 13" version="1.1" xmlns="http://www.w3.org/2000/svg" xmlns:xlink="http://www.w3.org/1999/xlink">
    <!-- Generator: Sketch 60.1 (88133) - https://sketch.com -->
    <title>DOREPARTNERSHIP Logo_White@1x</title>
    <desc>Created with Sketch.</desc>
    <g id="Symbols" stroke="none" stroke-width="1" fill="none" fill-rule="evenodd">
        <g id="Navigation-Bar-/-White-on-image" transform="translate(-165.000000, -76.000000)" fill="#FEFEFE" fill-rule="nonzero">
            <path d="M165,88.773913 L165,76.2072464 L169.521426,76.2072464 C173.472925,76.2072464 176.094592,78.8826087 176.094592,82.5 C176.094592,86.1362319 173.472925,88.773913 169.521426,88.773913 L165,88.773913 Z M166.899759,87.115942 L169.521426,87.115942 C172.447055,87.115942 174.13784,85.0434783 174.13784,82.5 C174.13784,79.9188406 172.504048,77.8652174 169.521426,77.8652174 L166.899759,77.8652174 L166.899759,87.115942 Z M180.55632,82.5 C180.55632,78.7695652 183.15899,76 186.93951,76 C190.72003,76 193.3227,78.7695652 193.3227,82.5 C193.3227,86.2304348 190.72003,89 186.93951,89 C183.15899,89 180.55632,86.2304348 180.55632,82.5 Z M191.365948,82.5 C191.365948,79.7304348 189.61817,77.6768116 186.93951,77.6768116 C184.222855,77.6768116 182.513072,79.7304348 182.513072,82.5 C182.513072,85.2507246 184.222855,87.3231884 186.93951,87.3231884 C189.61817,87.3231884 191.365948,85.2507246 191.365948,82.5 Z M205.611434,88.773913 L202.590818,83.9318841 L200.216119,83.9318841 L200.216119,88.773913 L198.31636,88.773913 L198.31636,76.2072464 L203.654683,76.2072464 C206.067377,76.2072464 207.720167,77.7521739 207.720167,80.0695652 C207.720167,82.3304348 206.181362,83.5362319 204.566567,83.7434783 L207.815155,88.773913 L205.611434,88.773913 Z M205.763415,80.0695652 C205.763415,78.7507246 204.775541,77.8652174 203.407714,77.8652174 L200.216119,77.8652174 L200.216119,82.273913 L203.407714,82.273913 C204.775541,82.273913 205.763415,81.3884058 205.763415,80.0695652 Z M212.751822,88.773913 L212.751822,76.2072464 L221.262742,76.2072464 L221.262742,77.8652174 L214.651581,77.8652174 L214.651581,81.5391304 L221.129759,81.5391304 L221.129759,83.1971014 L214.651581,83.1971014 L214.651581,87.115942 L221.262742,87.115942 L221.262742,88.773913 L212.751822,88.773913 Z M233.928723,88.773913 L233.928723,76.2072464 L239.267046,76.2072464 C241.869715,76.2072464 243.313532,77.9782609 243.313532,80.0695652 C243.313532,82.1608696 241.850718,83.9318841 239.267046,83.9318841 L235.828482,83.9318841 L235.828482,88.773913 L233.928723,88.773913 Z M241.35678,80.0695652 C241.35678,78.7507246 240.387903,77.8652174 239.020077,77.8652174 L235.828482,77.8652174 L235.828482,82.273913 L239.020077,82.273913 C240.387903,82.273913 241.35678,81.3884058 241.35678,80.0695652 Z M255.564272,88.773913 L254.538402,86.173913 L248.32619,86.173913 L247.30032,88.773913 L245.210585,88.773913 L250.244947,76.2072464 L252.619645,76.2072464 L257.654006,88.773913 L255.564272,88.773913 Z M251.422797,77.8463768 L248.87712,84.4971014 L253.987472,84.4971014 L251.422797,77.8463768 Z M269.16384,88.773913 L266.143223,83.9318841 L263.768524,83.9318841 L263.768524,88.773913 L261.868766,88.773913 L261.868766,76.2072464 L267.207088,76.2072464 C269.619782,76.2072464 271.272572,77.7521739 271.272572,80.0695652 C271.272572,82.3304348 269.733767,83.5362319 268.118972,83.7434783 L271.36756,88.773913 L269.16384,88.773913 Z M269.315821,80.0695652 C269.315821,78.7507246 268.327946,77.8652174 266.960119,77.8652174 L263.768524,77.8652174 L263.768524,82.273913 L266.960119,82.273913 C268.327946,82.273913 269.315821,81.3884058 269.315821,80.0695652 Z M279.210859,88.773913 L279.210859,77.8652174 L275.278358,77.8652174 L275.278358,76.2072464 L285.024121,76.2072464 L285.024121,77.8652174 L281.110618,77.8652174 L281.110618,88.773913 L279.210859,88.773913 Z M298.604692,88.773913 L291.594581,79.1275362 L291.594581,88.773913 L289.694822,88.773913 L289.694822,76.2072464 L291.651574,76.2072464 L298.547699,85.6275362 L298.547699,76.2072464 L300.447458,76.2072464 L300.447458,88.773913 L298.604692,88.773913 Z M305.954053,88.773913 L305.954053,76.2072464 L314.464973,76.2072464 L314.464973,77.8652174 L307.853812,77.8652174 L307.853812,81.5391304 L314.33199,81.5391304 L314.33199,83.1971014 L307.853812,83.1971014 L307.853812,87.115942 L314.464973,87.115942 L314.464973,88.773913 L305.954053,88.773913 Z M326.829698,88.773913 L323.809081,83.9318841 L321.434383,83.9318841 L321.434383,88.773913 L319.534624,88.773913 L319.534624,76.2072464 L324.872946,76.2072464 C327.28564,76.2072464 328.938431,77.7521739 328.938431,80.0695652 C328.938431,82.3304348 327.399626,83.5362319 325.784831,83.7434783 L329.033418,88.773913 L326.829698,88.773913 Z M326.981679,80.0695652 C326.981679,78.7507246 325.993804,77.8652174 324.625978,77.8652174 L321.434383,77.8652174 L321.434383,82.273913 L324.625978,82.273913 C325.993804,82.273913 326.981679,81.3884058 326.981679,80.0695652 Z M333.191185,87.0028986 L334.274047,85.5521739 C335.128939,86.4942029 336.496765,87.3231884 338.263541,87.3231884 C340.315281,87.3231884 341.037189,86.2869565 341.037189,85.3826087 C341.037189,84.0637681 339.593372,83.6869565 337.978577,83.2724638 C335.945835,82.7449275 333.590134,82.1608696 333.590134,79.5985507 C333.590134,77.526087 335.4329,76.0188406 338.073565,76.0188406 C340.030317,76.0188406 341.569122,76.6405797 342.689979,77.7710145 L341.588119,79.1652174 C340.619242,78.1478261 339.289411,77.6956522 337.921585,77.6956522 C336.515763,77.6956522 335.546886,78.4115942 335.546886,79.4666667 C335.546886,80.5971014 336.914712,80.9550725 338.491512,81.3507246 C340.562249,81.8971014 342.974943,82.5376812 342.974943,85.2130435 C342.974943,87.1724638 341.607117,89 338.187551,89 C335.926838,89 334.274047,88.1898551 333.191185,87.0028986 Z M356.783485,88.773913 L356.783485,83.1594203 L349.773375,83.1594203 L349.773375,88.773913 L347.873616,88.773913 L347.873616,76.2072464 L349.773375,76.2072464 L349.773375,81.4826087 L356.783485,81.4826087 L356.783485,76.2072464 L358.683244,76.2072464 L358.683244,88.773913 L356.783485,88.773913 Z M364.189839,88.773913 L364.189839,76.2072464 L366.089598,76.2072464 L366.089598,88.773913 L364.189839,88.773913 Z M371.615191,88.773913 L371.615191,76.2072464 L376.953513,76.2072464 C379.556183,76.2072464 381,77.9782609 381,80.0695652 C381,82.1608696 379.537186,83.9318841 376.953513,83.9318841 L373.51495,83.9318841 L373.51495,88.773913 L371.615191,88.773913 Z M379.043248,80.0695652 C379.043248,78.7507246 378.074371,77.8652174 376.706545,77.8652174 L373.51495,77.8652174 L373.51495,82.273913 L376.706545,82.273913 C378.074371,82.273913 379.043248,81.3884058 379.043248,80.0695652 Z" id="DOREPARTNERSHIP-Logo_White"></path>
        </g>
    </g>
</svg>