<?xml version="1.0" encoding="UTF-8"?>
<svg width="216px" height="15px" viewBox="0 0 216 15" version="1.1" xmlns="http://www.w3.org/2000/svg" xmlns:xlink="http://www.w3.org/1999/xlink">
    <!-- Generator: sketchtool 60.1 (101010) - https://sketch.com -->
    <title>DDC21FC8-DC66-4BF4-AFC0-0001C436FDF0@1x</title>
    <desc>Created with sketchtool.</desc>
    <g id="Desktop-Designs" stroke="none" stroke-width="1" fill="none" fill-rule="evenodd">
        <g id="BlueLogo" transform="translate(-164.000000, -79.000000)" fill="#34517C" fill-rule="nonzero">
            <g id="Group-16">
                <g id="Navigation-Bar-Navigation-Bar-/-Dark">
                    <g id="Group" transform="translate(164.000000, 76.131148)">
                        <path d="M0,16.6789736 L0,3.39126871 L4.52142624,3.39126871 C8.4729248,3.39126871 11.0945921,6.22013541 11.0945921,10.0450819 C11.0945921,13.8899501 8.4729248,16.6789736 4.52142624,16.6789736 L0,16.6789736 Z M1.89975892,14.9258734 L4.52142624,14.9258734 C7.44705498,14.9258734 9.13784042,12.7344977 9.13784042,10.0450821 C9.13784042,7.31582333 7.50404775,5.14436927 4.52142624,5.14436927 L1.89975892,5.14436927 L1.89975892,14.9258734 Z M15.5563199,10.045082 C15.5563199,6.10060584 18.1589897,3.17213115 21.9395099,3.17213115 C25.7200302,3.17213115 28.3226999,6.10060584 28.3226999,10.045082 C28.3226999,13.9895581 25.7200302,16.9180328 21.9395099,16.9180328 C18.1589897,16.9180328 15.5563199,13.9895581 15.5563199,10.045082 Z M26.3659482,10.0450818 C26.3659482,7.11660721 24.61817,4.94515322 21.9395099,4.94515322 C19.2228547,4.94515322 17.5130716,7.11660721 17.5130716,10.0450818 C17.5130716,12.9536349 19.2228547,15.1450105 21.9395099,15.1450105 C24.61817,15.1450105 26.3659482,12.9536349 26.3659482,10.0450818 Z M40.6114345,16.6789736 L37.5908178,11.5591233 L35.2161191,11.5591233 L35.2161191,16.6789736 L33.3163602,16.6789736 L33.3163602,3.39126871 L38.6546828,3.39126871 C41.0673766,3.39126871 42.7201669,5.02483962 42.7201669,7.47519599 C42.7201669,9.86578757 41.1813622,11.1407697 39.5665671,11.3599073 L42.8151548,16.6789736 L40.6114345,16.6789736 Z M40.7634152,7.47519609 C40.7634152,6.08068432 39.7755406,5.14436927 38.4077141,5.14436927 L35.2161191,5.14436927 L35.2161191,9.80602292 L38.4077141,9.80602292 C39.7755406,9.80602292 40.7634152,8.86970787 40.7634152,7.47519609 Z M47.7518224,16.6789736 L47.7518224,3.39126871 L56.2627424,3.39126871 L56.2627424,5.1443692 L49.6515813,5.1443692 L49.6515813,9.02908051 L56.1297592,9.02908051 L56.1297592,10.782181 L49.6515813,10.782181 L49.6515813,14.9258731 L56.2627424,14.9258731 L56.2627424,16.6789736 L47.7518224,16.6789736 Z M68.9287231,16.6789736 L68.9287231,3.39126871 L74.2670456,3.39126871 C76.8697154,3.39126871 78.3135322,5.26389878 78.3135322,7.47519599 C78.3135322,9.6864932 76.8507178,11.5591233 74.2670456,11.5591233 L70.828482,11.5591233 L70.828482,16.6789736 L68.9287231,16.6789736 Z M76.3567805,7.47519609 C76.3567805,6.08068432 75.3879034,5.14436927 74.020077,5.14436927 L70.828482,5.14436927 L70.828482,9.80602292 L74.020077,9.80602292 C75.3879034,9.80602292 76.3567805,8.86970787 76.3567805,7.47519609 Z M90.5642716,16.6789736 L89.5384017,13.9297932 L83.3261901,13.9297932 L82.3003202,16.6789736 L80.2105854,16.6789736 L85.2449466,3.39126871 L87.6196452,3.39126871 L92.6540064,16.6789736 L90.5642716,16.6789736 Z M86.4227971,5.12444758 L83.8771201,12.1567709 L88.9874717,12.1567709 L86.4227971,5.12444758 Z M104.16384,16.6789736 L101.143223,11.5591233 L98.7685245,11.5591233 L98.7685245,16.6789736 L96.8687655,16.6789736 L96.8687655,3.39126871 L102.207088,3.39126871 C104.619782,3.39126871 106.272572,5.02483962 106.272572,7.47519599 C106.272572,9.86578757 104.733767,11.1407697 103.118972,11.3599073 L106.36756,16.6789736 L104.16384,16.6789736 Z M104.315821,7.47519609 C104.315821,6.08068432 103.327946,5.14436927 101.960119,5.14436927 L98.7685245,5.14436927 L98.7685245,9.80602292 L101.960119,9.80602292 C103.327946,9.80602292 104.315821,8.86970787 104.315821,7.47519609 Z M114.210859,16.6789736 L114.210859,5.1443692 L110.278358,5.1443692 L110.278358,3.39126871 L120.024121,3.39126871 L120.024121,5.1443692 L116.110618,5.1443692 L116.110618,16.6789736 L114.210859,16.6789736 Z M133.604692,16.6789736 L126.594581,6.47911617 L126.594581,16.6789736 L124.694822,16.6789736 L124.694822,3.39126871 L126.651574,3.39126871 L133.547699,13.352067 L133.547699,3.39126871 L135.447458,3.39126871 L135.447458,16.6789736 L133.604692,16.6789736 Z M140.954053,16.6789736 L140.954053,3.39126871 L149.464973,3.39126871 L149.464973,5.1443692 L142.853812,5.1443692 L142.853812,9.02908051 L149.33199,9.02908051 L149.33199,10.782181 L142.853812,10.782181 L142.853812,14.9258731 L149.464973,14.9258731 L149.464973,16.6789736 L140.954053,16.6789736 Z M161.829698,16.6789736 L158.809081,11.5591233 L156.434383,11.5591233 L156.434383,16.6789736 L154.534624,16.6789736 L154.534624,3.39126871 L159.872946,3.39126871 C162.28564,3.39126871 163.938431,5.02483962 163.938431,7.47519599 C163.938431,9.86578757 162.399626,11.1407697 160.784831,11.3599073 L164.033418,16.6789736 L161.829698,16.6789736 Z M161.981679,7.47519609 C161.981679,6.08068432 160.993804,5.14436927 159.625978,5.14436927 L156.434383,5.14436927 L156.434383,9.80602292 L159.625978,9.80602292 C160.993804,9.80602292 161.981679,8.86970787 161.981679,7.47519609 Z M168.191185,14.8063434 L169.274047,13.2723804 C170.128939,14.2684603 171.496765,15.1450105 173.263541,15.1450105 C175.315281,15.1450105 176.037189,14.0493227 176.037189,13.0930861 C176.037189,11.6985743 174.593372,11.3001424 172.978577,10.8618673 C170.945835,10.3040626 168.590134,9.68649312 168.590134,6.97715603 C168.590134,4.78578044 170.4329,3.19205274 173.073565,3.19205274 C175.030317,3.19205274 176.569122,3.84946542 177.689979,5.0447612 L176.588119,6.51895932 C175.619242,5.44319312 174.289411,4.96507481 172.921585,4.96507481 C171.515763,4.96507481 170.546886,5.72209547 170.546886,6.83770486 C170.546886,8.03300063 171.914712,8.41151096 173.491512,8.82986448 C175.562249,9.40759078 177.974943,10.084925 177.974943,12.9137917 C177.974943,14.9856377 176.607117,16.9180326 173.187551,16.9180326 C170.926838,16.9180326 169.274047,16.0614039 168.191185,14.8063434 Z M191.783485,16.6789736 L191.783485,10.7423378 L184.773375,10.7423378 L184.773375,16.6789736 L182.873616,16.6789736 L182.873616,3.39126871 L184.773375,3.39126871 L184.773375,8.96931573 L191.783485,8.96931573 L191.783485,3.39126871 L193.683244,3.39126871 L193.683244,16.6789736 L191.783485,16.6789736 Z M199.189839,16.6789736 L199.189839,3.39126871 L201.089598,3.39126871 L201.089598,16.6789736 L199.189839,16.6789736 Z M206.615191,16.6789736 L206.615191,3.39126871 L211.953513,3.39126871 C214.556183,3.39126871 216,5.26389878 216,7.47519599 C216,9.6864932 214.537186,11.5591233 211.953513,11.5591233 L208.51495,11.5591233 L208.51495,16.6789736 L206.615191,16.6789736 Z M214.043248,7.47519609 C214.043248,6.08068432 213.074371,5.14436927 211.706545,5.14436927 L208.51495,5.14436927 L208.51495,9.80602292 L211.706545,9.80602292 C213.074371,9.80602292 214.043248,8.86970787 214.043248,7.47519609 Z" id="DOREPARTNERSHIP-Logo_Blue"></path>
                    </g>
                </g>
            </g>
        </g>
    </g>
</svg>