<?xml version="1.0" encoding="UTF-8"?>
<svg width="21px" height="15px" viewBox="0 0 21 15" version="1.1" xmlns="http://www.w3.org/2000/svg" xmlns:xlink="http://www.w3.org/1999/xlink">
    <!-- Generator: sketchtool 61.2 (101010) - https://sketch.com -->
    <title>C30E6773-C0D0-47E1-ACCB-C0CDF6EFFF46@1x</title>
    <desc>Created with sketchtool.</desc>
    <defs>
        <polygon id="path-1" points="0.08084367 0.091423212 18.5272785 0.091423212 18.5272785 7.66938 0.08084367 7.66938"></polygon>
    </defs>
    <g id="Desktop-Designs" stroke="none" stroke-width="1" fill="none" fill-rule="evenodd">
        <g id="B-Desktop_Practice-Area-Overview--Read-More" transform="translate(-830.000000, -1178.000000)">
            <g id="Envelope" transform="translate(830.000000, 1178.000000)">
                <path d="M19.1692686,0.116637612 L10.6993314,8.99420761 C10.5249318,9.17596141 10.290543,9.27681901 10.0395546,9.27681901 C9.78846121,9.27681901 9.55407235,9.17596141 9.37967275,8.99420761 L0.909840612,0.116637612 C1.08833755,0.042045012 1.28490481,2.1012e-05 1.48977181,2.1012e-05 L18.5892324,2.1012e-05 C18.7942044,2.1012e-05 18.9906666,0.042045012 19.1692686,0.116637612" id="Fill-1" fill="#313131"></path>
                <path d="M5.16479162,6.25002991 L0.054568164,13.5905721 C0.018952824,13.4634495 4.2024e-05,13.3300233 4.2024e-05,13.1913441 L4.2024e-05,1.48871071 C4.2024e-05,1.29645091 0.036707964,1.11259591 0.102895764,0.944499906 L5.16479162,6.25002991 Z" id="Fill-3" fill="#313131"></path>
                <g id="Group-7" transform="translate(0.735420, 7.011704)">
                    <mask id="mask-2" fill="white">
                        <use xlink:href="#path-1"></use>
                    </mask>
                    <g id="Clip-6"></g>
                    <path d="M13.3635795,0.091423212 L18.5272785,7.50865921 C18.3246177,7.61161801 18.0955869,7.66940101 17.8538439,7.66940101 L0.75427827,7.66940101 C0.51274533,7.66940101 0.28360947,7.61161801 0.08084367,7.50865921 L5.24359713,0.091423212 L7.80916233,2.77990861 C8.20198167,3.19279441 8.73369033,3.42077461 9.30406107,3.42077461 C9.87464193,3.42077461 10.4062455,3.19279441 10.7991699,2.77990861 L13.3635795,0.091423212 Z" id="Fill-5" fill="#313131" mask="url(#mask-2)"></path>
                </g>
                <path d="M20.0790042,1.48872121 L20.0790042,13.1913546 C20.0790042,13.3300338 20.0600934,13.463355 20.024373,13.5905826 L14.9143596,6.25004041 L19.9761504,0.944510412 C20.0422332,1.11260641 20.0790042,1.29646141 20.0790042,1.48872121" id="Fill-8" fill="#313131"></path>
            </g>
        </g>
    </g>
</svg>