<?xml version="1.0" encoding="UTF-8"?>
<svg width="15px" height="15px" viewBox="0 0 15 15" version="1.1" xmlns="http://www.w3.org/2000/svg" xmlns:xlink="http://www.w3.org/1999/xlink">
    <!-- Generator: sketchtool 61.2 (101010) - https://sketch.com -->
    <title>FC5F8D2B-EE7E-49A1-955B-C5C2FC1E8439@1x</title>
    <desc>Created with sketchtool.</desc>
    <defs>
        <polygon id="path-1" points="0.42855 0.389595 16.42855 0.389595 16.42855 16.389595 0.42855 16.389595"></polygon>
    </defs>
    <g id="Desktop-Designs" stroke="none" stroke-width="1" fill="none" fill-rule="evenodd">
        <g id="B-Desktop_Practice-Area-Overview--Read-More" transform="translate(-929.000000, -1178.000000)">
            <g id="Group-10" transform="translate(-4.000000, 925.000000)">
                <g id="Group">
                    <g id="Group-2">
                        <g id="Linkedin" transform="translate(932.000000, 252.000000)">
                            <mask id="mask-2" fill="white">
                                <use xlink:href="#path-1"></use>
                            </mask>
                            <g id="Clip-2"></g>
                            <path d="M3.04897776,4.35036521 C3.04745265,5.06463916 3.6188157,5.63996755 4.33173165,5.64202161 C5.05194339,5.64408902 5.63353531,5.07673211 5.63551267,4.37018285 C5.63755292,3.63581979 5.07151382,3.06804333 4.34570701,3.05824557 C3.69446011,3.04943499 3.05270265,3.57449125 3.04897776,4.35036521 L3.04897776,4.35036521 Z M3.23928728,13.7787961 L5.45424647,13.7787961 L5.45424647,6.62588869 L3.23928728,6.62588869 L3.23928728,13.7787961 Z M9.08527699,13.7798326 L9.08527699,13.6123329 C9.08527699,12.4566415 9.08266431,11.3009501 9.08756925,10.1452834 C9.08853051,9.92107019 9.10171714,9.69399415 9.13984745,9.47353222 C9.19887918,9.13214077 9.32702363,8.81885926 9.62881255,8.61182298 C9.87881624,8.44032516 10.161577,8.40054182 10.458042,8.40397227 C10.9473521,8.40964855 11.3036622,8.64968132 11.4352327,9.1228366 C11.5087574,9.38727739 11.5538138,9.66822876 11.5566237,9.94231923 C11.5693173,11.1677796 11.5621694,12.393462 11.5621941,13.6190704 L11.5621941,13.7776608 L13.7863469,13.7776608 C13.7892061,13.7386672 13.7937906,13.7067073 13.7936228,13.674772 C13.7862484,12.215745 13.7796181,10.7566932 13.77003,9.29766614 C13.7673188,8.88769037 13.7056004,8.4845755 13.5936003,8.09056736 C13.3781037,7.33270943 12.9230048,6.79427689 12.1498248,6.57307457 C11.6416589,6.42771235 11.121391,6.39064375 10.5980667,6.49192839 C9.95899587,6.6156467 9.44244976,6.93058174 9.08074178,7.48202037 C9.05966782,7.51410372 9.03750935,7.54544668 9.01584385,7.57715983 C9.0064037,7.57437104 8.9969389,7.57155758 8.98749876,7.5687688 L8.98749876,6.62603677 L6.86378611,6.62603677 L6.86378611,13.7798326 L9.08527699,13.7798326 Z M15.1428689,16.0000002 L1.85764906,16.0000002 C1.82866313,15.9825269 1.80177227,15.9573292 1.77037084,15.948716 C1.28796207,15.8165326 0.999655548,15.3467091 1.00000031,14.8736032 C1.00295837,10.6462278 1.00152879,6.41885241 1.00276118,2.19147703 C1.00278583,2.08194943 1.00902175,1.97074362 1.02832106,1.86319039 C1.11266618,1.39302133 1.53784252,1.00229556 2.03600129,1.00217216 C6.34832451,1.00120966 10.6606231,1.00286319 14.9729217,1.00000018 C15.4849572,0.999654855 16.0002709,1.48626046 16.0000003,2.02160806 C15.9978554,6.33531232 15.9991371,10.6490659 15.9981265,14.9627702 C15.9980526,15.3204501 15.8310384,15.5967124 15.5449009,15.7962214 C15.4228198,15.881341 15.2775697,15.9330939 15.1428689,16.0000002 L15.1428689,16.0000002 Z" id="Fill-1" fill="#313131" mask="url(#mask-2)"></path>
                        </g>
                    </g>
                </g>
            </g>
        </g>
    </g>
</svg>