<?xml version="1.0" encoding="UTF-8"?>
<svg width="164px" height="179px" viewBox="0 0 164 179" version="1.1" xmlns="http://www.w3.org/2000/svg" xmlns:xlink="http://www.w3.org/1999/xlink">
    <!-- Generator: Sketch 60.1 (88133) - https://sketch.com -->
    <title>Experienced Professionals Icon@1x</title>
    <desc>Created with Sketch.</desc>
    <g id="Desktop-Designs" stroke="none" stroke-width="1" fill="none" fill-rule="evenodd">
        <g id="A-Desktop_Career-Page-B" transform="translate(-270.000000, -3616.000000)">
            <g id="Group-10" transform="translate(1.000000, 3422.000000)">
                <g id="Experienced-Professionals-Icon" transform="translate(270.000000, 195.000000)">
                    <g id="Group-5" transform="translate(0.000000, 122.117000)" stroke="#FFFFFF" stroke-width="2">
                        <polygon id="Stroke-1" points="0 54 53.868 54 53.868 0.132 0 0.132"></polygon>
                        <polygon id="Stroke-3" points="107.722 54 161.59 54 161.59 0.132 107.722 0.132"></polygon>
                        <polygon id="Stroke-4" points="53.753 54 107.621 54 107.621 0.132 53.753 0.132"></polygon>
                    </g>
                    <polygon id="Stroke-6" stroke="#FFFFFF" stroke-width="2" points="81.076 122.129 134.944 122.129 134.944 68.261 81.076 68.261"></polygon>
                    <polygon id="Fill-7" fill="#F06C45" points="80.802 68.1808 46.919 34.2978 80.802 0.4138 114.685 34.2978"></polygon>
                    <polygon id="Stroke-8" stroke="#FFFFFF" stroke-width="2" points="80.802 68.1808 46.919 34.2978 80.802 0.4138 114.685 34.2978"></polygon>
                    <polygon id="Stroke-10" stroke="#FFFFFF" stroke-width="2" points="26.828 122.129 80.696 122.129 80.696 68.261 26.828 68.261"></polygon>
                </g>
            </g>
        </g>
    </g>
</svg>